<svg width="300" height="37" viewBox="0 0 300 37" fill="none" xmlns="http://www.w3.org/2000/svg">
<path d="M27.1698 22.4906H7.09434V17.5094H32.9811C32.3019 15.3962 30.1132 13.4339 26.2641 13.4339H7.4717C3.16981 13.4339 0.679245 15.0189 0.679245 18.4906V22.1887C0.679245 25.2075 3.24528 26.9434 7.01887 26.9434H27.3208V32.2264H0C0.679245 35.0943 2.86792 36.6038 6.79245 36.6038H27.2453C31.5472 36.6038 33.6604 34.9434 33.6604 31.3962V27.6981C33.6604 24.4528 31.1698 22.717 27.1698 22.4906V22.4906ZM68.1509 13.5094H43.3962V36.6792H50.4151V27.7736H68.6792C73.7358 27.7736 76.5283 26.0377 76.5283 21.9623V19.3962C76.4528 15.6226 73.283 13.5094 68.1509 13.5094V13.5094ZM70.4151 20.9056C70.4151 22.566 70.1132 23.4717 67.3962 23.4717H50.4151L50.4906 17.434H67.0943C70.1132 17.434 70.4906 18.3396 70.4906 19.9245V20.9056H70.4151ZM99.8491 27.6226H84.9057L81.2075 31.5472H102.792L106.491 36.6792H114.792L96.9056 12.5283L92.6792 17.7358L99.8491 27.6226ZM128.226 17.5094H154.491C153.811 14.7924 151.17 13.4339 147.396 13.4339H127.774C124.377 13.4339 121.132 14.7924 121.132 18.4906V31.4717C121.132 35.1698 124.377 36.5283 127.774 36.5283H147.623C152.151 36.5283 153.736 35.2453 154.491 32.1509H128.226V17.5094ZM185.283 25.2075V21.283H164.075V36.6792H195.396V32.3019H171.17V25.2075H185.283ZM164.83 13.5094H196.453V17.5849H164.83V13.5094ZM215.925 13.5094H204.906L217.887 23.0189C219.774 21.7358 221.962 20.3773 223.925 19.2453L215.925 13.5094ZM231.925 25.3585C230.038 26.6415 228.151 28.0755 226.34 29.434L236.151 36.6038H247.245L231.925 25.3585Z" fill="white"/>
<path d="M300 0C239.623 3.4717 211.698 29.283 205.434 35.3962L204.151 36.6038H215.321C245.509 6.33962 288.906 0.981132 300 0Z" fill="white"/>
</svg>
